<svg xmlns="http://www.w3.org/2000/svg" xmlns:xlink="http://www.w3.org/1999/xlink" viewBox="0 0 400 300" width="398.4" height="298.8" class="illustration styles_illustrationTablet__1DWOa"><defs><linearGradient id="linear-gradient" x1="285.78" y1="118.48" x2="126.21" y2="248.36" gradientUnits="userSpaceOnUse"><stop offset="0" stop-color="#d4a397"></stop><stop offset="1" stop-color="#fff"></stop></linearGradient><linearGradient id="linear-gradient-2" x1="81.88" y1="145.22" x2="30.34" y2="187.17" xlink:href="#linear-gradient"></linearGradient><linearGradient id="linear-gradient-3" x1="163.69" y1="113.28" x2="149.98" y2="125.22" xlink:href="#linear-gradient"></linearGradient><linearGradient id="linear-gradient-4" x1="158.78" y1="115.59" x2="155.54" y2="121.11" xlink:href="#linear-gradient"></linearGradient><linearGradient id="linear-gradient-5" x1="220.39" y1="161.88" x2="216.46" y2="170.63" xlink:href="#linear-gradient"></linearGradient><linearGradient id="linear-gradient-6" x1="206.33" y1="128.69" x2="197.5" y2="136.75" xlink:href="#linear-gradient"></linearGradient></defs><title>PP</title><g style="isolation: isolate;"><g id="Layer_2" data-name="Layer 2"><polyline points="240.13 127.13 240.13 159.74 242.54 159.74 243.06 126.29" fill="#895851"></polyline><polyline points="253.85 114.59 258.69 150.04 256.27 150.04 251.22 115.9" fill="#895851"></polyline><path d="M255.16,80.89c-.64,1.8-4.25,29-4.25,29l-3.63-1.22L252,80.74" fill="#895851"></path><path d="M245.09,107.8s9.74,3.74,8.76,7.42-8.75,12.69-13.72,11.91S229.07,122,229.07,122" fill="#a9cbf8"></path><path d="M245.09,103.33s9.74,3.74,8.76,7.42-8.75,12.69-13.72,11.91-11.05-5.11-11.05-5.11" fill="#cbe3ff"></path><path d="M248.94,69.19s9.4,2.35,10.36,7.76,1.23,15.4-12.13,11.52-7.05-13.91-7.05-13.91" fill="#cbe3ff"></path><path d="M192.11,291.18,11,184.15c-5.77-3.24-10.71-8.55-5.09-12L187.67,67.37c2.73-1.69,6.87-2.8,9.64-1.19L387.4,176.51c5.77,3.35,6.8,12.7,1,16L216,291A24.08,24.08,0,0,1,192.11,291.18Z" fill="#ffdaae"></path><polyline points="278.36 146 278.36 178.61 280.77 178.61 281.29 145.16" fill="#895851"></polyline><polyline points="292.08 133.46 296.92 168.91 294.5 168.91 289.45 134.78" fill="#895851"></polyline><path d="M293.39,99.76c-.64,1.8-4.25,29-4.25,29l-3.63-1.22,4.73-27.91" fill="#895851"></path><path d="M283.32,126.68s9.74,3.74,8.76,7.42-8.75,12.69-13.72,11.91-11.05-5.11-11.05-5.11" fill="#a9cbf8"></path><path d="M283.32,122.2s9.74,3.74,8.76,7.42-8.75,12.69-13.72,11.91-11.05-5.11-11.05-5.11" fill="#cbe3ff"></path><path d="M287.18,88.06s9.4,2.35,10.36,7.76,1.23,15.4-12.13,11.52-7.05-13.91-7.05-13.91" fill="#cbe3ff"></path><polyline points="130.91 127.11 130.91 162.78 128.26 162.78 127.7 126.19" fill="#895851"></polyline><polyline points="115.89 113.4 110.61 152.17 113.25 152.17 118.77 114.84" fill="#895851"></polyline><path d="M114.46,76.54c.7,2,4.65,31.7,4.65,31.7l4-1.33-5.18-30.53" fill="#895851"></path><path d="M125.48,106s-10.65,4.09-9.58,8.11,9.57,13.87,15,13S143,121.53,143,121.53" fill="#a9cbf8"></path><path d="M125.48,101.08s-10.65,4.09-9.58,8.11,9.57,13.87,15,13S143,116.63,143,116.63" fill="#cbe3ff"></path><path d="M121.26,63.74S111,66.31,109.93,72.23s-1.34,16.84,13.26,12.6,7.71-15.21,7.71-15.21" fill="#cbe3ff"></path><path d="M168.65,146.12s2.46,8.07,3,8.89,8.61,6.15,8.48,7.79-3.18,2.32-5.08,2.19-12.83-4.7-13.52-6-.68-12.83-.68-12.83Z" fill="#68e1fd"></path><path d="M155.69,155.56s2.46,8.07,3,8.89,8.61,6.15,8.48,7.79-3.18,2.32-5.08,2.19-12.83-4.7-13.52-6-.68-12.83-.68-12.83Z" fill="#68e1fd"></path><path d="M145.62,92.94s21.06,14.45,23.77,21.81,4.5,36.35,4.5,36.35S166.53,155.68,158,153l-6.45-32.85s-15.31-6.54-18-14.72.94-23.43.94-23.43" fill="#3c6071"></path><path d="M122.64,90.44s-3.63,15.26-.94,23.43,18,14.72,18,14.72l6.45,32.85c8.57,2.69,15.94-1.88,15.94-1.88s-1.78-29-4.5-36.35-23.77-21.81-23.77-21.81,3.82-7.7.84-11S122.64,90.44,122.64,90.44Z" fill="#3c6071"></path><path d="M140.55,104.31c3.79,3.78,7.85,7.43,11.38,11.46,3.06,3.5,4.27,7.95,5.46,12.35,2.77,10.26,4,20.85,5.23,31.38.07.64-.93.63-1,0-1.18-10.13-2.38-20.31-5-30.2-1.26-4.85-2.53-9.67-6-13.44s-7.21-7.24-10.82-10.84A.5.5,0,0,1,140.55,104.31Z" fill="#5c2d1d"></path><path d="M185.55,270.88,285,202.74,182.83,139.8,78.95,203.18C96.77,217.73,166.26,258.36,185.55,270.88Z" fill="url(#linear-gradient)" style="mix-blend-mode: multiply;"></path><path d="M229.81,252.78c1.9-15,1.65-63.9,1.65-63.9l-5.73-5.14s.27,53.26,1.87,69A3.91,3.91,0,0,0,229.81,252.78Z" fill="#304c1f"></path><path d="M168.86,73.48s3.81-.94,5.15-2.08,3.64-4.34,4.79-4.06,0,2.46,0,2.46,4.64.37,5.91,1.5a4.24,4.24,0,0,1,0,5.51c-1.44,1.36-6.14-.1-6.6,0s-9.26,1.38-9.26,1.38" fill="#fbb5ad"></path><path d="M151,69.3a17,17,0,0,1-2.15-1.45c-2.66-2.11-5.34-5.23-8.38-7.43.05.62.08,1.23.15,1.81l.65,5.9,1.16,10.45c0,.19,0,.74.1.89,5,6.52,28.74,1.37,28.74,1.37a18.88,18.88,0,0,0,.9-9.24C167.67,71.8,155.07,72,151,69.3Z" fill="#68e1fd"></path><path d="M173.27,135.11s-1.46,8.11.91,9.06,12,8.47,10.56,11.48c-3.3,6.92-23-8.13-23-8.13l2.45-17.15" fill="#1d3f75"></path><path d="M124.52,56.47c-1-1.77-4.17-4.1-6-2.05a2.16,2.16,0,0,0,.31,3c.95.9,2.5,1.15,3.7,1.51a1,1,0,0,0,1.26-1A1,1,0,0,0,124.52,56.47Z" fill="#fbb5ad"></path><path d="M147.07,90,120,83.38s.85,11.75,1.9,19.6c4.85,2.17,10.76,2.13,15.89,1.38a34,34,0,0,0,10.53-3,23.75,23.75,0,0,0,3.1-1.92C151,96.59,147.4,92.91,147.07,90Z" fill="#68e1fd"></path><path d="M151.41,99.44l-9.22-26.58c-.5-3.14,3.34-6.16,2-9.24-3.54-3.34-7.43-6.54-12.36-5.66-4,.72-7.62,3.44-10.53,6.15-1.91,1.78-4.26,3.67-5.7,6a15.47,15.47,0,0,0-.8,6.83c1.07,11,5.53,25.74,16.09,30.38C134.67,104.56,147.81,102.41,151.41,99.44Z" fill="#68e1fd"></path><path d="M131.95,50.72s3,13.9-1.6,15.67-9.26-1.44-10.07-4.06a19.79,19.79,0,0,1-.32-6.63S123.38,50.76,131.95,50.72Z" fill="#fbb5ad"></path><path d="M132.43,48.24c.15-3.38-4.58-5.52-6.75-2.66a4.9,4.9,0,0,0-4-1.14c-2,.34-2.7,1.76-2.53,3.65a3.67,3.67,0,0,0-3,1.45,3.29,3.29,0,0,0,0,3.78A3.36,3.36,0,0,0,114.07,57a4.1,4.1,0,0,0,.71,2,3.14,3.14,0,0,0-.2.67,3.24,3.24,0,0,0,1.5,3.24,3.72,3.72,0,0,0,2.13.64A2.87,2.87,0,0,0,120.85,65a2.77,2.77,0,0,0,2.64-2.56,2.69,2.69,0,0,0-.15-1.12,6.51,6.51,0,0,0,.33-4.46,2.39,2.39,0,0,0,.58-.27,2.72,2.72,0,0,0,1.08-1.6,3.85,3.85,0,0,0,2,.17A1.84,1.84,0,0,0,128.69,54c1.63.43,3.93-.2,4.77-1.68A3.16,3.16,0,0,0,132.43,48.24Z" fill="#d86212"></path><path d="M124.57,60.27a3.33,3.33,0,0,0-1.44-2.19,1.75,1.75,0,0,0-2.5.23,2,2,0,0,0,.11,2.33c.61.8,1.62.81,2.48,1.17.52.21.83-.31.72-.75A.67.67,0,0,0,124.57,60.27Z" fill="#fbb5ad"></path><path d="M131,56.78c-.06-.32-.56-.19-.49.14l.43,2.18a5.88,5.88,0,0,1,.2,1c0,.6-.3.71-.75,1a.26.26,0,0,0,.26.44c.59-.36,1.08-.53,1-1.28A28.53,28.53,0,0,0,131,56.78Z" fill="#56403d"></path><path d="M132.18,56.18a.26.26,0,0,0,0,.51A.26.26,0,0,0,132.18,56.18Z" fill="#56403d"></path><path d="M127.24,57.85a.26.26,0,0,0,0,.51A.26.26,0,0,0,127.24,57.85Z" fill="#56403d"></path><path d="M129.86,62.52a1.76,1.76,0,0,1-2.21-.72.26.26,0,0,0-.44.26,2.28,2.28,0,0,0,2.91.91C130.41,62.82,130.15,62.38,129.86,62.52Z" fill="#56403d"></path><path d="M232.2,166.91c0-1.9.09-3.79.11-5.68L224,162.86s.41,3.23-.5,4.38-7.86,4.55-8.68,5.62-1.08,3.09,3.8,2.91,8.77-3.57,9.84-3.82,3.28-.55,4-1C232.38,169.58,232.19,168.23,232.2,166.91Z" fill="#2a343d"></path><path d="M246.37,169.31c0-1.9.09-3.79.11-5.68l-8.33,1.63s.41,3.23-.5,4.38-7.86,4.55-8.68,5.62-1.08,3.09,3.8,2.91,8.77-3.57,9.84-3.82,3.28-.55,4-1C246.55,172,246.36,170.63,246.37,169.31Z" fill="#2a343d"></path><path d="M242.55,88l-4.22.77a11.71,11.71,0,0,0,0-1.59c-.88-.05-1.77-.13-2.64-.24-2.47-.3-4.5-2.78-6.82-3.7-1,4.79-1.27,15.24-2.44,22.83-1.48,9.61-6,54.24-4.72,57.94,0,0,0,1.34,7.66,1.76,0,0,1.84,1.06,4.54-2.75l2.73-47.52-1.25,51c2.33,2.14,5.83,3.13,12.26-.08l3.1-64.59Z" fill="#35406e"></path><path d="M236.25,85q1,.11,2,.17c-.53-9.06-3.35-29.29-9.37-1.91A25.77,25.77,0,0,0,236.25,85Z" fill="#35406e"></path><path d="M252.07,84.81c-.1-.47-.19-.95-.29-1.42-.86-4-1.79-10.75-3.28-14.63-1.16-3-4.13-4-7.51-4.56a56.63,56.63,0,0,0-10.33-.86,1,1,0,0,1-.41-.07,9.07,9.07,0,0,0-5.71,3.36c-3.19,4-3.69,6.34-6.57,10.55a46.88,46.88,0,0,1-9.22,10c2.72,1,4.61,3.75,5.38,6.51.43,1.55-.49,1.1-.83,2.69,4.52-5,14-13.22,14-13.22l.26,9.29c4.37,3.79,11.27,3.14,15.1,2.39A22.35,22.35,0,0,0,252.07,84.81Z" fill="#68e1fd"></path><path d="M230.26,63.28s-1.09,7,5.24,7,6.66-5.68,6.66-5.68A39.6,39.6,0,0,0,230.26,63.28Z" fill="#f2f2f2"></path><path d="M239.25,62.54s-1.79,1.79-3.41,1.93c-1.37.12-3-1.62-3.48-2.16a14.18,14.18,0,0,0,.81,5c.27.46.53.75.71.68.62-.25,1.8-1.92,1.8-1.92S237,68,237.55,68s2.38-3.31,2.38-3.31Z" fill="#35406e"></path><path d="M243.22,50.77a2.77,2.77,0,0,0-3.4-.85.53.53,0,0,0-.09-.14c-.72-.78-1-1.6-2.15-1.91a5.88,5.88,0,0,0-3.09.11,3.77,3.77,0,0,0-2.31,1.7.47.47,0,0,0-.28-.07,4.14,4.14,0,0,0-4,4.23c.09,1.87,1.57,4,3.5,4.09a6.9,6.9,0,0,0,2.89.38,1.17,1.17,0,0,0,.82-1.88l.14-.09.11,0a1,1,0,0,0,1.29.16l.16-.1a3.34,3.34,0,0,0,.69-.25l.27.09-.09.27a1.1,1.1,0,0,0,.51,1.24,1.73,1.73,0,0,0,.66.15,6,6,0,0,1-2,1.79c-1.06.53-.45,1.94.51,2-.47.35-.29,2.5.26,2.19a11.2,11.2,0,0,0,5.5-7.21C243.56,55.31,244.19,52,243.22,50.77Z" fill="#2a343d"></path><path d="M230.6,55.12c-.27,0-.28,9.06,3.45,9.66,4.7.76,6.47-4.83,6.47-4.83s.69-4.14-2.24-5.52S234,55.73,230.6,55.12Z" fill="#ef986c"></path><path d="M230.6,55.12s3.71.69,5.7,0-.86,5.7.6,5.7,1.38-3.45,2.5-2.16S237.71,64,237.71,64s4-2,4.92-5.46-3.48-6.73-7.71-6.39S230.6,55.12,230.6,55.12Z" fill="#2a343d"></path><path d="M262.19,119.61l-1.6,7.71s-3.68,3.14-3,3.86,2.1-.76,2.1-.76-2.34,2.11-1.13,4.1,3.18,1.9,3.68,1.09,1.3-7.14,1.3-7.14l4.33-10.85" fill="#ffc6b2"></path><path d="M262.19,119.61l5.63-2s1.69-11,2.51-15c1.28-6.32-.23-8.88-.23-8.88s3-5.87.58-6.3-5.82,9.12-6.26,14S262.19,119.61,262.19,119.61Z" fill="#ffc6b2"></path><path d="M269.73,86.1s-5.69,2.73-6.24,15.23c0,0,6,1.17,8.55.53" fill="#68e1fd"></path><path d="M280.52,141.09s1.92,15.69,3,19.71,2,29.23,2,29.23,3.37,2.41,6.26,0c0,0,1.52-20.43.72-25.89s0-27,0-27" fill="#ffc6b2"></path><path d="M269.47,136.56s-.38,11.58,0,15.39,2,28,2,28a4.3,4.3,0,0,0,5.6,0s1.85-12,1.62-14.25-.61-31.17-.61-31.17" fill="#ffc6b2"></path><path d="M287.65,116.31s5.62,7.07,4.82,23.93c0,0-8.83,6.21-16,1.59l-4.12-27.09" fill="#f15a24"></path><path d="M269.56,112.37S265.9,132.12,266,139c0,4.07,10.9,3.22,14.57,2.11s-1.79-30.4-1.79-30.4" fill="#f15a24"></path><path d="M281.33,78.87c0,.06,14,12.66,9.78,17.18s-9.78-1.64-9.78-1.64l-1.76-14.34" fill="#f18f22"></path><path d="M280.52,199a3.28,3.28,0,0,0,.63,3.64c1.61,1.71,3.72.86,5.5,0s6.82-5.35,6.13-6.54-1-6.11-1-6.11" fill="#fff"></path><path d="M285.48,188.08s-.81,4.65-2,6.16-3.89,5.2-3,6.16,1.55-1.92,3-1.1,1,2.88,2,2.47,6-4.33,6.53-6.82-.68-6.87-.68-6.87" fill="#68e1fd"></path><path d="M262.86,186.73s-.2,2.77,2.31,3.3,5.63-1,7-1.65,6.54-5,6.54-5l-.6-6" fill="#fff"></path><path d="M271.3,177s-1.51,3.73-4.22,5.14-4.83,4.12-4.22,4.63,1.91-1.31,2.61-.8.7,2.7,1.56,2.15,2.67.86,5.18-.85,1.71-2.41,3.82-3.22,2.11-6.64,2.11-6.64S272.81,178.56,271.3,177Z" fill="#68e1fd"></path><path d="M288.26,90.59c-1.15-4-7.6-5.45-14.92-5.24a9,9,0,0,0-3.61.75c-2.55,3.7-2,8.75-1.59,13,.44,4.77.52,13.27.86,16.44,6.57,3.4,16.89,1.16,18.65.78C287.65,116.31,289.41,94.61,288.26,90.59Z" fill="#68e1fd"></path><path d="M276.2,123.51c0-.4-.65-.41-.63,0l1,18.39c0,.4.65.41.63,0Z" fill="#842e13"></path><path d="M289.38,99.54l-.5-.16a44.84,44.84,0,0,1-6.48.86c-.18,4.52-1.12,8.86-4.28,12.39a86.49,86.49,0,0,1-11.84,10.51l2.25,4.42s13.84-8.08,16.74-11.75C290.79,108.82,289.38,99.54,289.38,99.54Z" fill="#ffc6b2"></path><path d="M270.33,126.49l-3.45,2.1s-2.1,4.73-3.5,4.73-3-1.34-3.6-2.06.8-3.93.8-3.93-1.61.09-2.06-.84,4.86-1.24,4.86-1.24l4.74-3.44" fill="#ffc6b2"></path><path d="M284.12,87s6.68-.09,7.05,14.62l-9.64,1L280,96.67" fill="#68e1fd"></path><path d="M278.36,82.32l.37,3.78s-2.59,1.6-4.86.51l-.31-2.37" fill="#ffb39c"></path><path d="M272.77,81.21c-5.91.68-5.44-4.09-5.44-4.09-.95-10,9.72-8.08,9.72-8.08s8,1.88,3.06,11.87" fill="#f18f22"></path><path d="M268.39,73.57s.43,12.32,5.51,11.74,4.78-4.78,4.78-4.78.72-7.68-3.48-9.13S268.39,73.57,268.39,73.57Z" fill="#ffc6b2"></path><path d="M268.39,73.57S271.33,78,275,77.64s3.38,4.68,3.38,4.68A6.71,6.71,0,0,0,281.8,76c0-2.7-3.8-7.15-7.32-6.94S267.58,71.08,268.39,73.57Z" fill="#f18f22"></path><path d="M44.15,194.36l34-26.23L52.8,157.59l-34.22,19.3C26.59,183.43,35.48,188.73,44.15,194.36Z" fill="url(#linear-gradient-2)" style="mix-blend-mode: multiply;"></path><polyline points="50.36 147.17 50.36 164.88 79 164.88 79 147.17" fill="#f8997c"></polyline><ellipse cx="64.68" cy="147.17" rx="14.32" ry="7.05" fill="#dd654a"></ellipse><ellipse cx="64.68" cy="165.56" rx="14.32" ry="7.05" fill="#f8997c"></ellipse><path d="M80.72,106c-3-1.24-7.21-5.35-10.87-5.22-1.39,3.41-1.8,7.4-2.22,10.87a98.61,98.61,0,0,0-.41,18.14q.13,2,.33,4a3.21,3.21,0,0,0,.32,1.14q0,7,0,14a.45.45,0,0,0,.89,0q0-6.74,0-13.48a19.87,19.87,0,0,0,4.1-1.89,14,14,0,0,0,5.77-7.25c2.31-6.44.85-13.62,3-20C81.35,106.25,81,106.14,80.72,106Z" fill="#297600"></path><path d="M74.52,95.46a11.22,11.22,0,0,0-4.09,4.18,7,7,0,0,0-.64,1.24l-.12.27h0a18.72,18.72,0,0,0-.69,2.22,2.77,2.77,0,0,1,1.52-1.2A3.79,3.79,0,0,1,72.9,102a10,10,0,0,1,2.19,1.17c1,.62,2,1.31,3,2,4.75,3,11.06,3.32,14.72-1.07,0-.17.09-.35.12-.53C93.49,100.48,85,89.36,74.52,95.46Z" fill="#5fad00"></path><path d="M90.72,105.88c.19-.14.39-.27.59-.39a.41.41,0,0,0-.12-.34c-2.87-2.95-5.95-5.83-9.87-7.29A16.91,16.91,0,0,0,72.51,97c-.32.37-.61.76-.9,1.15,3.19-1.06,7.23-.4,10.13.84,3.47,1.48,6.22,4.13,8.82,6.79A.43.43,0,0,0,90.72,105.88Z" fill="#297600"></path><path d="M42.64,112.29a12,12,0,0,0-6.4,11.47c.34,8.45,14.26.2,18-6.93s4.28,3,4.28,3" fill="#297600"></path><path d="M55.18,109.34a25.21,25.21,0,0,0-7.73,1.07,18.75,18.75,0,0,0-4.81,1.88,15.51,15.51,0,0,0,2.78,1.48c1.75.71,3.58,1.58,4.5,3.22a6.42,6.42,0,0,1,.54,1.27c.85,2.78.12,6.15,1.26,8.95s3.48,5.26,6.76,5.46c3.92.24,5.72-3.53,6.5-6.79s1.84-7.71.6-11.06C64.14,110.93,58.89,109.52,55.18,109.34Z" fill="#5fad00"></path><path d="M60.34,122.53C58.7,117.2,55.2,112.16,50.1,109.8H49.9l-.24.08-.93.24c6,2.21,9.69,8.08,11.21,14.07,2,7.67,1.29,16,1.31,23.82a.41.41,0,0,0,.82,0C62.07,139.63,62.84,130.65,60.34,122.53Z" fill="#297600"></path><path d="M122.17,129.61l103.09,60.64a11.06,11.06,0,0,0,11.34-.07l62-37.55a5.55,5.55,0,0,0-.05-9.53L198.8,84.21a11.11,11.11,0,0,0-11.2-.06l-65.4,37.7A4.49,4.49,0,0,0,122.17,129.61Z" fill="#304c1f"></path><path d="M122.17,124.83l103.09,60.64a11.06,11.06,0,0,0,11.34-.07l62-37.55a5.55,5.55,0,0,0-.05-9.53L198.8,79.43a11.11,11.11,0,0,0-11.2-.06l-65.4,37.7A4.49,4.49,0,0,0,122.17,124.83Z" fill="#ef7816"></path><path d="M133.18,199.33c1.9-15,1.65-63.9,1.65-63.9l-5.73-5.14s.27,53.26,1.87,69A3.91,3.91,0,0,0,133.18,199.33Z" fill="#304c1f"></path><path d="M166.84,117.13c0-.8-.07-1.6-.15-2.4l-16.64-8.94c-4.63,2.51-19.15,10.63-23.52,13.56l29,17.86L182,123.62c.46-.67-15.34-5.57-15.11-6.35A.27.27,0,0,1,166.84,117.13Z" fill="url(#linear-gradient-3)" style="mix-blend-mode: multiply;"></path><ellipse cx="164.91" cy="115.78" rx="21.84" ry="12.09" fill="#68e1fd"></ellipse><ellipse cx="164.91" cy="115.78" rx="21.84" ry="12.09" fill="#093e3e" opacity="0.29"></ellipse><ellipse cx="164.91" cy="114.46" rx="21.84" ry="12.09" fill="#68e1fd"></ellipse><ellipse cx="164.25" cy="115.87" rx="13.05" ry="7" fill="#093e3e" opacity="0.29"></ellipse><polyline points="157.31 107.32 143.07 115.78 158.5 126.02 172.55 118.71" fill="url(#linear-gradient-4)" style="mix-blend-mode: multiply;"></polyline><ellipse cx="164.9" cy="110.92" rx="13.86" ry="9.52" fill="#de764d"></ellipse><path d="M151.32,109.43c0,.81,0,1.92.88,2.25a3.48,3.48,0,0,0,1.63,0,5.76,5.76,0,0,1,2.94-.05c2,.75,2.19,6.31,5.08,4,.77-.62,1.13-1.72,2.07-2.14a2.39,2.39,0,0,1,2.65.81,8.37,8.37,0,0,0,1.28,1.42c1.07.72,2.12,0,2.58-1s.74-2.11,2-2.4c1.7-.38,3.4,1.28,5-.07a4.17,4.17,0,0,0,1.28-2.51c-.82-4.72-6.66-8.38-13.76-8.38-6.88,0-12.59,3.45-13.67,8A.22.22,0,0,1,151.32,109.43Z" fill="#fff6e1"></path><ellipse cx="164.9" cy="109.21" rx="5.32" ry="3.23" fill="#c55644"></ellipse><path d="M160.33,110.86a9.87,9.87,0,0,1,9.35-.25s-1.25,2-4.79,1.82S160.33,110.86,160.33,110.86Z" fill="#9e3226"></path><path d="M156.91,106.21a.47.47,0,0,0-.66,0l-.62.62a.46.46,0,0,0,.66.66l.62-.62A.47.47,0,0,0,156.91,106.21Z" fill="#e24040"></path><path d="M161.3,103.78l-.48-.48a.46.46,0,0,0-.66.66l.48.48a.46.46,0,1,0,.66-.66Z" fill="#e24040"></path><path d="M171.48,103.87a.47.47,0,0,0-.66,0l-.53.53a.46.46,0,0,0,.66.66l.53-.53A.47.47,0,0,0,171.48,103.87Z" fill="#e24040"></path><path d="M167.61,103.06l-.43-.38a.48.48,0,0,0-.66,0,.47.47,0,0,0,0,.66l.43.38a.48.48,0,0,0,.66,0A.47.47,0,0,0,167.61,103.06Z" fill="#e24040"></path><path d="M175.12,108.47h-.72a.46.46,0,0,0,0,.93h.72a.46.46,0,1,0,0-.93Z" fill="#e24040"></path><path d="M169.14,113l-.29-.24a.48.48,0,0,0-.66,0,.47.47,0,0,0,0,.66l.29.24a.48.48,0,0,0,.66,0A.47.47,0,0,0,169.14,113Z" fill="#e24040"></path><path d="M161,112.4a.47.47,0,0,0-.64.17l-.06.06-.06.06a.48.48,0,0,0-.17.64.47.47,0,0,0,.64.17,1.75,1.75,0,0,0,.45-.45A.47.47,0,0,0,161,112.4Z" fill="#e24040"></path><path d="M154.81,109.52H154a.46.46,0,0,0,0,.93h.76a.46.46,0,0,0,0-.93Z" fill="#e24040"></path><path d="M173.45,105.7a.46.46,0,0,0,0,.93A.46.46,0,0,0,173.45,105.7Z" fill="#6ab55b"></path><path d="M164.89,103.55a.46.46,0,0,0,0,.93A.46.46,0,0,0,164.89,103.55Z" fill="#6ab55b"></path><path d="M160.69,105.79a.46.46,0,0,0,0,.93A.46.46,0,0,0,160.69,105.79Z" fill="#6ab55b"></path><path d="M157.73,103.64a.46.46,0,0,0,0,.93A.46.46,0,0,0,157.73,103.64Z" fill="#6ab55b"></path><path d="M154.24,106.84a.46.46,0,0,0,0,.93A.46.46,0,0,0,154.24,106.84Z" fill="#6ab55b"></path><path d="M157.82,108.42a.46.46,0,0,0,0,.93A.46.46,0,0,0,157.82,108.42Z" fill="#6ab55b"></path><path d="M171.68,108.95a.46.46,0,0,0,0,.93A.46.46,0,0,0,171.68,108.95Z" fill="#6ab55b"></path><path d="M175.6,110a.46.46,0,0,0,0,.93A.46.46,0,0,0,175.6,110Z" fill="#6ab55b"></path><path d="M171,105.94a.46.46,0,0,0,0,.93A.46.46,0,0,0,171,105.94Z" fill="#6ab55b"></path><path d="M175,60.38s-3.27-9.62-4.08-10.16-2,.43-1.62,1,4.35,10.63,4.35,10.63" fill="#cccece"></path><rect x="173.62" y="64.46" width="7.91" height="5.79" fill="#fc93b4"></rect><ellipse cx="177.85" cy="78.44" rx="5.27" ry="3.11" fill="#64becc"></ellipse><ellipse cx="178" cy="77.81" rx="5.27" ry="3.11" fill="#8bd7e8"></ellipse><path d="M176.81,72.76v4.09a1.89,1.89,0,0,0,2.21,0V72.76" fill="#64becc"></path><ellipse cx="182.02" cy="63.85" rx="4.64" ry="4.34" fill="#f8c691"></ellipse><ellipse cx="173.92" cy="64.26" rx="4.64" ry="4.34" fill="#e07d46"></ellipse><ellipse cx="178" cy="60.38" rx="4.64" ry="4.34" fill="#592a1a"></ellipse><path d="M169.28,64.72s2.07,3.81,8.87,3.81,8.27-3.81,8.27-3.81-.37,8.36-8.13,8.36S169.28,67,169.28,64.72Z" fill="#8bd7e8"></path><path d="M233.06,157.32c0-.8-.07-1.6-.15-2.4L216.27,146c-4.63,2.51-19.15,10.63-23.52,13.56l29,17.86,26.49-13.6c.46-.67-15.34-5.57-15.11-6.35A.27.27,0,0,1,233.06,157.32Z" fill="url(#linear-gradient-5)" style="mix-blend-mode: multiply;"></path><ellipse cx="228.54" cy="154.99" rx="25.9" ry="13.33" fill="#68e1fd"></ellipse><ellipse cx="228.54" cy="154.99" rx="25.9" ry="13.33" fill="#093e3e" opacity="0.29"></ellipse><ellipse cx="228.54" cy="153.44" rx="25.9" ry="13.33" fill="#68e1fd"></ellipse><ellipse cx="228.95" cy="153.44" rx="17.52" ry="8.26" fill="#093e3e" opacity="0.29"></ellipse><path d="M222.38,151.7l.82.15-.21-1.73a15.61,15.61,0,0,1-3.25-1,36.24,36.24,0,0,1-7-2.85,14.09,14.09,0,0,1-1.46-.78c-2-.53-3.81-2.64-3.44-.07a6.26,6.26,0,0,0,1.56,3.15q2.78.8,5.59,1.48C217.45,150.54,219.91,151.11,222.38,151.7Z" fill="#99ce45"></path><path d="M223.39,153.39l-.1-.79-.87-.21-13.75-2.48c-1.49.44-4.09.19-2.73,1.63,1.15,1.21,3,1,3.45,1.45q1.91.22,3.83.32C216.6,153.12,220,153.24,223.39,153.39Z" fill="#99ce45"></path><path d="M223,154.86l.54-.07-.09-.73a.3.3,0,0,1-.27.17l-14.45.34c-1.1,1.09-2.44,1.14-.34,1.56,1.46.29,2.41.26,2.85.59l11.48-1.94A.33.33,0,0,1,223,154.86Z" fill="#99ce45"></path><path d="M222.87,149.23l0-.3a.28.28,0,0,1-.43,0c-1.67-2-3.82-3.52-5.22-5.69a2.23,2.23,0,0,1-.58-.17c-2-.84-2.68-1.67-3.54-.31-.57.91.06,2-.11,2.5a53.62,53.62,0,0,0,9.35,3.85Z" fill="#99ce45"></path><path d="M222.62,147.24s-.36-5.34-2.86-5.57c-1.22-.11-1.52.42-1.74.89,1.56,1.94,3.15,3.85,4.73,5.76Z" fill="#99ce45"></path><path d="M223.54,156l.16-.09,0-.13-.22.15Z" fill="#99ce45"></path><path d="M222.92,155.52l-.74.08a45.86,45.86,0,0,0-11,4.32c.1.42.49.5,1.36.38,1.56-.23,3.42-2.28,4-1.07,1.07-.74,2.31-1.22,3.44-1.86S222,156.17,222.92,155.52Z" fill="#99ce45"></path><path d="M211.52,158.69a.31.31,0,0,1-.22,0l-.06.28.51-.33Z" fill="#99ce45"></path><path d="M222.4,148.92a.28.28,0,0,0,.43,0l-.08-.6c-1.58-1.92-3.17-3.83-4.73-5.76-.18.39-.31.73-.85.67C218.58,145.39,220.73,146.95,222.4,148.92Z" fill="#88b72c"></path><path d="M219.73,149.14a15.61,15.61,0,0,0,3.25,1l-.11-.9-.58-.12a53.62,53.62,0,0,1-9.35-3.85c-.08.27-.37.42-1.1.36a3.32,3.32,0,0,1-.58-.1,14.09,14.09,0,0,0,1.46.78A36.24,36.24,0,0,0,219.73,149.14Z" fill="#88b72c"></path><path d="M223.29,152.59l-.09-.74-.82-.15c-2.46-.59-4.93-1.15-7.41-1.62q-2.81-.69-5.59-1.48c.29.4.37.69-.09,1a2,2,0,0,1-.62.28l13.75,2.48Z" fill="#88b72c"></path><path d="M223.47,154.06l-.08-.68c-3.39-.14-6.79-.26-10.17-.09q-1.92-.11-3.83-.32c.18.17.18.44-.1.92a3.46,3.46,0,0,1-.54.68l14.45-.34A.3.3,0,0,0,223.47,154.06Z" fill="#88b72c"></path><path d="M223.73,156.13l0-.21-.16.09-.08-.07.22-.15-.12-1-.54.07a.33.33,0,0,0-.28-.08l-11.48,1.94c.3.22.36.62.17,1.4l-.13.56a.31.31,0,0,0,.22,0l.23-.07-.51.33a2.47,2.47,0,0,0-.06,1,45.86,45.86,0,0,1,11-4.32l.74-.08c-1,.65-2,1.27-3,1.84s-2.37,1.12-3.44,1.86l0,.05C217,160.59,223.73,156.13,223.73,156.13Z" fill="#88b72c"></path><path d="M245.25,152a5.5,5.5,0,0,0,.47-.39,2.43,2.43,0,0,0-.13-3.63c-1.07-.95-2.3-.93-3.71-1h-.15c-.08-.29-.08-.71-.18-.93a3.39,3.39,0,0,0-1.32-1.46,5.87,5.87,0,0,0-4.41-.6c-.54.12-1.57.71-2.11.52s-1.19-1.34-1.75-1.71a5.58,5.58,0,0,0-7.53,1.51,5.86,5.86,0,0,0-.72,2.11c-.21,1-.57,1-1.6,1.44-1.55.63-2.67,1.72-2.7,3.25,0,1.92,1.18,3.09,2.85,3.78l.45.24a8.23,8.23,0,0,0,2.13,2.17c1.87,1.29,4.17,1.55,6.49,1.78,3.67.36,9.54,1.15,12.17-1.67,2.43-.93,4.2-3.32,1.84-5.28Z" fill="#f8f5e6"></path><ellipse cx="233.35" cy="150" rx="6.76" ry="3.53" fill="#f19e16"></ellipse><path d="M235.48,147.43a1,1,0,0,0,0,2.09A1,1,0,0,0,235.48,147.43Z" fill="#f9f6bf"></path><path d="M233.09,152.57c-2.41-.19-5.8-1.37-6.08-3.79a2.11,2.11,0,0,0-.42,1.22c0,2,3,3.53,6.76,3.53,3,0,5.61-1,6.46-2.49C238,152.44,235.48,152.76,233.09,152.57Z" fill="#db8303"></path><ellipse cx="224.42" cy="157.72" rx="6.05" ry="2.78" fill="#d84027"></ellipse><ellipse cx="224.42" cy="156.92" rx="6.05" ry="2.78" fill="#ea6453"></ellipse><path d="M220.23,157.15a6.71,6.71,0,0,0,4.82,1.55,4.36,4.36,0,0,0,4.15-2.41Z" fill="#d84027"></path><path d="M219.84,156.7l9-1a21.57,21.57,0,0,0-5.32-.77A5.68,5.68,0,0,0,219.84,156.7Z" fill="#d84027"></path><path d="M220.64,157.11a.16.16,0,0,0,0,.33A.16.16,0,0,0,220.64,157.11Z" fill="#f9b2ac"></path><path d="M223,158.22a.16.16,0,0,0,0,.33A.16.16,0,0,0,223,158.22Z" fill="#f9b2ac"></path><path d="M224.7,158.16a.16.16,0,0,0,0,.33A.16.16,0,0,0,224.7,158.16Z" fill="#f9b2ac"></path><path d="M223.28,157a.16.16,0,0,0,0,.33A.16.16,0,0,0,223.28,157Z" fill="#f9b2ac"></path><path d="M221.66,156a.16.16,0,0,0,0,.33A.16.16,0,0,0,221.66,156Z" fill="#f9b2ac"></path><path d="M223.62,155a.16.16,0,0,0,0,.33A.16.16,0,0,0,223.62,155Z" fill="#f9b2ac"></path><path d="M223.38,155.45a.16.16,0,0,0,0,.33A.16.16,0,0,0,223.38,155.45Z" fill="#f9b2ac"></path><path d="M221.55,155.18a.16.16,0,0,0,0,.33A.16.16,0,0,0,221.55,155.18Z" fill="#f9b2ac"></path><path d="M219.76,156.43a.16.16,0,0,0,0,.33A.16.16,0,0,0,219.76,156.43Z" fill="#f9b2ac"></path><path d="M226.27,158.16a.16.16,0,0,0,0,.33A.16.16,0,0,0,226.27,158.16Z" fill="#f9b2ac"></path><path d="M227.69,156.91a.16.16,0,0,0,0,.33A.16.16,0,0,0,227.69,156.91Z" fill="#f9b2ac"></path><path d="M225.29,157.28a.16.16,0,0,0,0,.33A.16.16,0,0,0,225.29,157.28Z" fill="#f9b2ac"></path><path d="M225.9,155.35a.16.16,0,0,0,0,.33A.16.16,0,0,0,225.9,155.35Z" fill="#f9b2ac"></path><path d="M227.66,155.75a.16.16,0,0,0,0,.33A.16.16,0,0,0,227.66,155.75Z" fill="#f9b2ac"></path><path d="M260.57,216.45l1.29-.83,0-14.54-6.38-.23s-.12,6.2-1.6,7.62-5.24.4-5.61.53-2.88-.61-4,.55,3.83,4.51,6.46,5.12a17,17,0,0,0,5.47.21s.57-3.72,1.48-3.35,1,4.3,1,4.3Z" fill="#ff6753"></path><path d="M250.46,176.8c.24,13,.72,30.76,1.56,31,9.23,2.68,13-1.76,13-1.76s.72-16.26,1.28-30.6A28.36,28.36,0,0,0,250.46,176.8Z" fill="#a03dff"></path><path d="M243.09,227.67l1.29-.83,0-14.54-6.38-.23s-.12,6.2-1.6,7.62-5.24.4-5.61.53-2.88-.61-4,.55,3.83,4.51,6.46,5.12a17,17,0,0,0,5.47.21s.57-3.72,1.48-3.35,1,4.3,1,4.3Z" fill="#ff6753"></path><path d="M240,175a11.13,11.13,0,0,0-2.47,5.42c-.22,1.17-.38,2.36-.56,3.54q-.68,4.27-1.38,8.53-1.37,8.46-2.76,16.91l-1,5.85s8,2.91,15,.63c0,0,8.42-35.51,8.78-36.2.09-.18.54-1.85,1.17-4.51.13-.56-1.16-1.47-1.5-1.71a10.79,10.79,0,0,0-3.35-1.53,12.75,12.75,0,0,0-9.63,1.17A9,9,0,0,0,240,175Z" fill="#a03dff"></path><path d="M256.33,175.25c-.9,3.53-1.86,7-2.78,10.56q-3.88,14.9-6.71,30.05l.88-.24q2.89-15.29,6.82-30.36c.89-3.38,1.81-6.76,2.67-10.15Z" fill="#653200"></path><path d="M261.79,189.49c3.55-2.48,7.73-3.84,12.24-2.85,4.81,1.06,9,4.08,13.88,4.82.78.12,3.87-.08,4.34.37,13.64,12.91-24.48,11.53-24.48,11.53-3.7-3-7.18-6-10.86-9.07C258,191.8,259.89,190.82,261.79,189.49Z" fill="#f8997c"></path><path d="M279.74,208.2l1.35,38.94c.05,1.48-2.24,1.48-2.29,0l-1.35-38.94C277.39,206.72,279.69,206.72,279.74,208.2Z" fill="#f8997c"></path><path d="M251.15,229q10.41-10.19,19.9-21.27c1-1.12,2.58.51,1.62,1.62q-9.48,11.07-19.9,21.27C251.72,231.69,250.09,230.07,251.15,229Z" fill="#f8997c"></path><path d="M287.7,204.59q8.08,15.26,15.23,31c.61,1.33-1.37,2.5-2,1.16q-7.14-15.72-15.23-31C285,204.45,287,203.29,287.7,204.59Z" fill="#f8997c"></path><path d="M257.55,193.13a18.46,18.46,0,0,0,9.23,6.68c5.21,1.56,12.79.83,15.53-4.54,5-9.77.3-22,5.57-31.49a9.64,9.64,0,0,1,6.1-4.94c3.41-.74,5.75,1.79,7,4.76,2.22,5.33,2.14,12,2,17.63a94.89,94.89,0,0,1-1,13.7s-3.19,19-28,13.92a37.72,37.72,0,0,1-12.21-4.46,16.76,16.76,0,0,1-5-4.32C255.23,197.91,256.24,195.32,257.55,193.13Z" fill="#68e1fd"></path><path d="M285,181s-13.2-7.4-18.54-9.09-10,3.19-10,3.19c-5.48-2.65-11.71-1.21-15.4.32a35.36,35.36,0,0,0-1.39,4l12,13.67s16,10.26,25.72,6.42S285,181,285,181Z" fill="#a03dff"></path><path d="M274.55,152.35a.28.28,0,0,0-.48,0,12.59,12.59,0,0,0-1.85,9.44c.07.35.61.2.54-.15a12,12,0,0,1,1.53-8.6,19.85,19.85,0,0,1,2.35,9.54.28.28,0,0,0,.56,0A20.45,20.45,0,0,0,274.55,152.35Z" fill="#42a200"></path><path d="M292.17,155.07l-3.77-1.42c-1,.07-9.54,2.87-13.44,8.55a37.17,37.17,0,0,0-1.25,5.44c-.5,2.45-.93,4.91-1.23,7.38a54.31,54.31,0,0,0-.46,8.13c0,1.16.06,1.75.19,2.91a5.14,5.14,0,0,0,1.45,1c11.26,4.85,20.21-1,20.63-1.95s1.93-14.19,2.78-22.1A7.65,7.65,0,0,0,292.17,155.07Z" fill="#ffaf68"></path><path d="M283,140.6s-3.54,12.86,1.17,14.62,10.76-3.27,11.37-5.93S290,136.73,283,140.6Z" fill="#ffc6b2"></path><path d="M306.21,136.76a6,6,0,0,0-7.12-3.15,7.93,7.93,0,0,0-4.92,5.56c-2.34-2-5.82-3.08-10.25-1.73,0,0-4.34,1.85-3.55,4.62s4.08,2.78,6.84,3.3.53,3,.66,5.69,1.37,3.18,2.51,3.42,6.36-.88,7.09-7a8.15,8.15,0,0,0,.05-1.13,14.6,14.6,0,0,0,2.16.07,8,8,0,0,0,4.6-1.27A7,7,0,0,0,306.21,136.76Z" fill="#653200"></path><path d="M278.43,154.67a2.45,2.45,0,0,0,.43-1.74.94.94,0,0,0-1.67-.38l-.4.55c-.07-.71-.14-1.42-.24-2.12a.93.93,0,0,0-1.84.06c0,.22-.06.45-.08.67a3.65,3.65,0,0,0-.15.73c-1,.13-2.19.5-2.37,1.64,0,0,0,.05,0,.08-.77,0-1.53.31-1.55,1.22a3.38,3.38,0,0,0,0,.53c-.78.23-1.35.63-1.23,1.64a15,15,0,0,0,.91,3.46.87.87,0,0,0,.7.52c.11.49.24,1,.38,1.47a1.37,1.37,0,0,0,2.31.26,1.08,1.08,0,0,0,.28-.05.91.91,0,0,0,.77.13,1,1,0,0,0,1.39-.41.94.94,0,0,0,.3-.77c0-.21,0-.42,0-.63v0Q277.46,158.1,278.43,154.67Z" fill="#ffc6b2"></path><path d="M276.86,159.43c-.29.08-4.42-3.72-7.55-2.41,0,0-11.92,20.11-.8,25.43,5.53,2.64,9.79-5.49,9.79-5.49l-3.16-6.26Z" fill="#ffaf68"></path><path d="M275.88,160.25a40.18,40.18,0,0,0-5.3,13.9c-.1.58.78.82.88.24a39.48,39.48,0,0,1,5.21-13.69C277,160.21,276.19,159.75,275.88,160.25Z" fill="#ffc6b2"></path><path d="M278.09,177.72a10.28,10.28,0,0,1-3.93,4.61,6,6,0,0,1-6.64-1c-3.9-3.36-3.32-9.17-2.54-13.7.1-.58-.78-.82-.88-.24-.88,5.08-1.39,11.68,3.41,15.09a6.9,6.9,0,0,0,6.51.95c2.29-.93,3.75-3.1,4.85-5.22C279.16,177.66,278.37,177.2,278.09,177.72Z" fill="#ffc6b2"></path><path d="M257.55,193.13a18.46,18.46,0,0,0,9.23,6.68c5.21,1.56,12.79.83,15.53-4.54,5-9.77.3-22,5.57-31.49a9.64,9.64,0,0,1,6.1-4.94c3.41-.74,5.75,1.79,7,4.76,2.22,5.33,2.14,12,2,17.63a94.89,94.89,0,0,1-1,13.7s-3.19,19-28,13.92a37.72,37.72,0,0,1-12.21-4.46,16.76,16.76,0,0,1-5-4.32C255.23,197.91,256.24,195.32,257.55,193.13Z" fill="#68e1fd"></path><polygon points="236.6 185.4 259.39 171.58 248.89 167.38 237.55 172.16 234.47 182.28 236.6 185.4" fill="#ef7816"></polygon><polygon points="235.49 190.76 263.87 173.8 263.87 168.91 236.6 185.4 235.49 190.76" fill="#304c1f"></polygon><path d="M231.33,216.45l-.23,12.15s-3.79-2-3.92-2.4-1.06-10.35-1.06-10.35Z" fill="#304c1f"></path><path d="M140.76,103.85l6.21,3.73s3.86-.37,4.08.66-4.57,1.07-4.57,1.07-.19,5.07.3,6.24,2.21,4.88,2.21,4.88-.31.41-1.08,0c0,0-.19.89-.87,1a1,1,0,0,1-.31,1.06c-.56.44-3.19-2.9-3.72-4.19a44.61,44.61,0,0,1-1.06-6.47l-4.46-4.18Z" fill="#fbb5ad"></path><polyline points="130.91 107.31 135.7 111.68 144.06 104.47 134.84 96.74" fill="#68e1fd"></polyline><path d="M211,94.08s-2,5.54-2.64,4.85a2.14,2.14,0,0,1-.58-1.59s-3.86,4-5,4-3.34-.75-3.46-1.34a6.21,6.21,0,0,1,.77-3.42c.6-.68,9.58-6,9.58-6" fill="#ef986c"></path><polygon points="210.05 86.07 204.98 90.98 212.1 95.98 227.31 83.14 210.05 86.07" fill="#68e1fd"></polygon><path d="M234.32,101.36c-.39.39-5.2,3.71-5.25,3.67s-3.46,1.33-2.49,1.92,2.93,0,2.93,0-3.57,3.84-3.11,4.67a15.21,15.21,0,0,0,1.83,3.12c.69.65,5.3-2.38,6.08-3.12s3.43-7.92,3.43-7.92" fill="#ef986c"></path><path d="M250.86,79.82a31.06,31.06,0,0,1,1.19,11.88c-.54,7.09-14,16.8-14,16.8l-6.25-6.87s8.26-7,8.88-10.2" fill="#68e1fd"></path><path d="M219.61,128.65c0-.8-.07-1.6-.15-2.4l-10.19-5.19c-4.63,2.51-17.76,8.64-22.14,11.57l14.63,10.81L220.84,129c.46-.67-1.43.54-1.19-.24A.27.27,0,0,1,219.61,128.65Z" fill="url(#linear-gradient-6)" style="mix-blend-mode: multiply;"></path><path d="M207,126.54s.54,3.88,8,3.88c9,0,8.75-5.32,8.75-5.32" fill="#68e1fd"></path><path d="M207,126.54s.54,3.88,8,3.88c9,0,8.75-5.32,8.75-5.32" fill="#093e3e" opacity="0.68"></path><path d="M198.69,112.45s.87,16.64,17,16.29c14.91-.32,15.71-16.29,15.71-16.29Z" fill="#68e1fd"></path><path d="M214.3,127.41a16,16,0,0,1-4.44-4.35,19.49,19.49,0,0,1-3.47-10.6h-7.7s.87,16.64,17,16.29c.55,0,1.07,0,1.58-.1A10.48,10.48,0,0,1,214.3,127.41Z" fill="#093e3e" opacity="0.29"></path><ellipse cx="215.05" cy="112.57" rx="16.36" ry="9.62" fill="#ffa87d" stroke="#ddd" stroke-miterlimit="10"></ellipse><path d="M215.05,107.08c7.53,0,13.8,3,15.2,7.07a5.17,5.17,0,0,0,.29-1.7c0-4.85-6.94-8.78-15.5-8.78s-15.5,3.93-15.5,8.78a5.17,5.17,0,0,0,.29,1.7C201.25,110.12,207.52,107.08,215.05,107.08Z" fill="#68e1fd"></path><path d="M220.09,120.75q-.85.17-1.74.28A1.94,1.94,0,0,0,220.09,120.75Z" fill="none"></path><path d="M225.38,119l-.55.27a.9.9,0,0,0,.27-.07A.83.83,0,0,0,225.38,119Z" fill="none"></path><path d="M204.24,116.83c1.25,0,2.14.93,3.31,1.1,1.35.19,1.8-1.51,2.39-2.4a2.81,2.81,0,0,1,2.33-1.51c1.08,0,2.89,1.77,3.81,1,.41-.34.5-1.09.74-1.55a2.89,2.89,0,0,1,.86-1,3.34,3.34,0,0,1,3.15-.24c.59.19,1.43.56,2,.23s.53-1.28.72-1.84a3.17,3.17,0,0,1,1.25-1.6q-.61-.28-1.26-.53a2.62,2.62,0,0,1-.65.86c-1.07.91-2.39.45-3.54,0-.73-.3-1.7-.68-2.32,0a6.32,6.32,0,0,0-.67,1.16,2.35,2.35,0,0,1-2,1.45c-1.06,0-1.81-.91-2.8-1-1.35-.11-1.69,2-2.49,2.73a2.82,2.82,0,0,1-2.75.61,3.89,3.89,0,0,1-1.23-.78,1.19,1.19,0,0,0-2,.5c-.36,1-.53,1.91-1.58,2.45l-.17.08a10.1,10.1,0,0,0,1.19,1.07A2.39,2.39,0,0,1,204.24,116.83Z" fill="#fed337"></path><path d="M201.63,115c.37-.56.34-1.31.69-1.89a2.3,2.3,0,0,1,2.76-.9c.61.24,1,.85,1.6,1.06a1.7,1.7,0,0,0,2-.84c.65-1,1.06-2.36,2.45-2.53a2.65,2.65,0,0,1,1.34.23c.57.23,1.27.81,1.91.76,1-.08,1.28-1.74,1.92-2.37,1-1,2.27-.65,3.4-.2.77.31,1.82.86,2.54.14a1.46,1.46,0,0,0,.2-.26,24.66,24.66,0,0,0-6-1,3.37,3.37,0,0,1-1.9,1.5,3.31,3.31,0,0,1-1.92,0c-.71-.23-1.43-1.09-2.22-.92s-1.41,1.28-2,1.86a4.08,4.08,0,0,1-1.6,1,4.26,4.26,0,0,1-3.45-.38,8.34,8.34,0,0,0-3.5,4,6.22,6.22,0,0,0,.76,1.48A1.62,1.62,0,0,0,201.63,115Z" fill="#fed337"></path><path d="M222.23,120.23l.54-.17-.19,0A1.53,1.53,0,0,0,222.23,120.23Z" fill="#fed337"></path><path d="M207.18,109a5.31,5.31,0,0,0,1.08-1.08,19,19,0,0,0-3.68,1.42A3,3,0,0,0,207.18,109Z" fill="#fed337"></path><path d="M211.85,117.77a2.91,2.91,0,0,1,2.89-.6c1.07.39,2.72,2.29,3.62.74.54-.95.67-1.95,1.83-2.36s2.09.47,3.28.69c1.56.29,2-1.72,2.82-2.65a4.29,4.29,0,0,1,2.82-1.42,10.89,10.89,0,0,0-3-2.46,2,2,0,0,0-.62.29,2.71,2.71,0,0,0-1,1.89,2.18,2.18,0,0,1-2.28,1.88c-1.47,0-3.26-1.49-4.34.2-.63,1-.66,2.26-2.09,2.41a3.28,3.28,0,0,1-1.82-.45c-.74-.38-1.53-1-2.37-.54-1.11.67-1.3,2.38-2.33,3.2a2.74,2.74,0,0,1-3,.12,5.39,5.39,0,0,0-1.78-.72,1.31,1.31,0,0,0-1,.33,18.66,18.66,0,0,0,5.85,2.3C210.42,120.11,211,118.5,211.85,117.77Z" fill="#fed337"></path><path d="M227.65,113.91c-1,.75-1.29,2.06-2.21,2.89a2.42,2.42,0,0,1-2.53.46,8.44,8.44,0,0,0-1.74-.67c-.85-.1-1.21.49-1.5,1.18-.37.87-.76,1.71-1.78,1.89a4.08,4.08,0,0,1-2.81-1c-2.18-1.38-3,.85-4.28,2.26a26.22,26.22,0,0,0,2.71.29,4,4,0,0,1,3.36-.59c.49.12,1,.32,1.5.44q.89-.11,1.74-.28l.19-.17c.64-.66,1-1.34,2-1.59a2.9,2.9,0,0,1,1.27,0,5.08,5.08,0,0,0,1.28.31l.55-.27a10,10,0,0,0,.62-1,3.92,3.92,0,0,1,.76-.79,4.16,4.16,0,0,1,2.25-.89,6.62,6.62,0,0,0,1.24-2.11,5.9,5.9,0,0,0-.38-.86A3.23,3.23,0,0,0,227.65,113.91Z" fill="#fed337"></path><path d="M203.14,114.06a1.19,1.19,0,0,1,2-.5,3.89,3.89,0,0,0,1.23.78,2.82,2.82,0,0,0,2.75-.61c.8-.77,1.14-2.84,2.49-2.73,1,.08,1.75,1,2.8,1a2.35,2.35,0,0,0,2-1.45,6.32,6.32,0,0,1,.67-1.16c.62-.71,1.58-.33,2.32,0,1.15.47,2.47.93,3.54,0a2.62,2.62,0,0,0,.65-.86q-.53-.2-1.09-.37a1.46,1.46,0,0,1-.2.26c-.72.72-1.77.17-2.54-.14-1.13-.45-2.43-.76-3.4.2-.64.63-.9,2.29-1.92,2.37-.64.05-1.34-.53-1.91-.76a2.65,2.65,0,0,0-1.34-.23c-1.39.17-1.8,1.51-2.45,2.53a1.7,1.7,0,0,1-2,.84c-.61-.22-1-.82-1.6-1.06a2.3,2.3,0,0,0-2.76.9c-.36.58-.32,1.33-.69,1.89a1.62,1.62,0,0,1-1,.67,7.94,7.94,0,0,0,.77.95l.17-.08C202.61,116,202.77,115.08,203.14,114.06Z" fill="#f4b322"></path><path d="M206.26,118.7a2.74,2.74,0,0,0,3-.12c1-.82,1.22-2.53,2.33-3.2.84-.51,1.63.16,2.37.54a3.28,3.28,0,0,0,1.82.45c1.43-.15,1.47-1.42,2.09-2.41,1.07-1.68,2.87-.23,4.34-.2a2.18,2.18,0,0,0,2.28-1.88,2.71,2.71,0,0,1,1-1.89,2,2,0,0,1,.62-.29q-.6-.34-1.25-.65a3.17,3.17,0,0,0-1.25,1.6c-.2.56-.14,1.51-.72,1.84s-1.45,0-2-.23a3.34,3.34,0,0,0-3.15.24,2.89,2.89,0,0,0-.86,1c-.25.46-.33,1.21-.74,1.55-.92.76-2.73-1-3.81-1a2.81,2.81,0,0,0-2.33,1.51c-.58.89-1,2.59-2.39,2.4-1.17-.17-2.06-1.15-3.31-1.1a2.39,2.39,0,0,0-1.67.82q.45.35,1,.66a1.31,1.31,0,0,1,1-.33A5.39,5.39,0,0,1,206.26,118.7Z" fill="#f4b322"></path><path d="M226.3,113.59c-.83.92-1.27,2.94-2.82,2.65-1.18-.22-2-1.14-3.28-.69s-1.29,1.41-1.83,2.36c-.89,1.55-2.54-.35-3.62-.74a2.91,2.91,0,0,0-2.89.6c-.89.73-1.43,2.34-2.48,2.85q.69.15,1.4.27c1.28-1.41,2.1-3.63,4.28-2.26a4.08,4.08,0,0,0,2.81,1c1-.18,1.42-1,1.78-1.89.29-.69.65-1.28,1.5-1.18a8.44,8.44,0,0,1,1.74.67,2.42,2.42,0,0,0,2.53-.46c.92-.83,1.19-2.15,2.21-2.89a3.23,3.23,0,0,1,2.22-.61,7.07,7.07,0,0,0-.76-1.13A4.29,4.29,0,0,0,226.3,113.59Z" fill="#f4b322"></path><path d="M206.8,110.48a4.08,4.08,0,0,0,1.6-1c.6-.58,1.12-1.68,2-1.86s1.51.69,2.22.92a3.31,3.31,0,0,0,1.92,0,3.37,3.37,0,0,0,1.9-1.5q-.69,0-1.39,0h-.11a1.87,1.87,0,0,1-2,.39,4.34,4.34,0,0,1-.57-.26,24.47,24.47,0,0,0-4.11.75,5.31,5.31,0,0,1-1.08,1.08,3,3,0,0,1-2.6.34q-.65.34-1.23.72A4.26,4.26,0,0,0,206.8,110.48Z" fill="#f4b322"></path><path d="M226,117.94a10,10,0,0,1-.62,1,11.68,11.68,0,0,0,3.63-2.73,4.16,4.16,0,0,0-2.25.89A3.92,3.92,0,0,0,226,117.94Z" fill="#f4b322"></path><path d="M218.35,121c-.5-.11-1-.31-1.5-.44a4,4,0,0,0-3.36.59c.51,0,1,0,1.56,0A27.08,27.08,0,0,0,218.35,121Z" fill="#f4b322"></path><path d="M223.54,119a2.9,2.9,0,0,0-1.27,0c-1,.25-1.35.93-2,1.59l-.19.17c.74-.14,1.46-.32,2.14-.52a1.53,1.53,0,0,1,.34-.13l.19,0a18.9,18.9,0,0,0,2.06-.8A5.08,5.08,0,0,1,223.54,119Z" fill="#f4b322"></path><ellipse cx="207" cy="113.02" rx="5.24" ry="3.02" fill="#ccbdb8"></ellipse><ellipse cx="207" cy="112.12" rx="5.24" ry="3.02" fill="#f0f0f0"></ellipse><ellipse cx="207.69" cy="112.43" rx="3.62" ry="1.8" fill="#f4b322"></ellipse><ellipse cx="208.88" cy="112.11" rx="1.19" ry="0.69" fill="#fff2d4"></ellipse><ellipse cx="208.88" cy="116.5" rx="5.24" ry="3.02" fill="#ccbdb8"></ellipse><ellipse cx="208.88" cy="115.6" rx="5.24" ry="3.02" fill="#f0f0f0"></ellipse><ellipse cx="209.57" cy="115.91" rx="3.62" ry="1.8" fill="#f4b322"></ellipse><ellipse cx="210.76" cy="115.6" rx="1.19" ry="0.69" fill="#fff2d4"></ellipse><path d="M224.23,112.36l-.17-.48a2.16,2.16,0,0,1,1.67.71l0,.42S224.69,112.19,224.23,112.36Z" fill="#55823d"></path><path d="M220.09,119.26a.88.88,0,0,1,.91-1.09c1.11,0,1,.91,1,.91l.25-1a1.47,1.47,0,0,0-1.56-.58,1.49,1.49,0,0,0-1.05,1.38Z" fill="#55823d"></path><path d="M220.09,119.26a1.35,1.35,0,0,0,1.9-.18s0,1-.91,1-1.45-1.18-1.45-1.18" fill="#55823d"></path><path d="M219.94,111.68a1,1,0,0,1,.4,1.65l.87.49a2.23,2.23,0,0,0-.29-2C220.26,111.19,219.94,111.68,219.94,111.68Z" fill="#55823d"></path><path d="M225.87,117.16a1,1,0,0,1-.57-1.6l-.92-.4a2.23,2.23,0,0,0,.48,1.91C225.6,117.68,225.87,117.16,225.87,117.16Z" fill="#55823d"></path><path d="M213.91,118.37A1,1,0,0,1,215,119.7l1,.08s-.19-1.31-1.09-1.65S213.91,118.37,213.91,118.37Z" fill="#55823d"></path><path d="M212.72,110a1,1,0,0,1-.57-1.6l-.92-.4a2.23,2.23,0,0,0,.48,1.91C212.46,110.52,212.72,110,212.72,110Z" fill="#55823d"></path><path d="M222.74,109.57a1,1,0,0,1-1.63-.46l-.86.52s.92,1,1.84.7S222.74,109.57,222.74,109.57Z" fill="#55823d"></path><path d="M223.61,113.82a.32.32,0,0,0,0,.63A.32.32,0,0,0,223.61,113.82Z" fill="#b25636"></path><path d="M222.17,111.08a.32.32,0,0,0,0,.63A.32.32,0,0,0,222.17,111.08Z" fill="#b25636"></path><path d="M217.91,116.63a.32.32,0,0,0,0,.63A.32.32,0,0,0,217.91,116.63Z" fill="#b25636"></path><path d="M213.66,111.51a.32.32,0,0,0,0,.63A.32.32,0,0,0,213.66,111.51Z" fill="#b25636"></path><path d="M226.78,114a.32.32,0,0,0,0,.63A.32.32,0,0,0,226.78,114Z" fill="#b25636"></path><path d="M213.3,120.17a.32.32,0,0,0,0,.63A.32.32,0,0,0,213.3,120.17Z" fill="#b25636"></path><path d="M217.77,120.24a.32.32,0,0,0,0,.63A.32.32,0,0,0,217.77,120.24Z" fill="#b25636"></path><path d="M219.72,108.49a.32.32,0,0,0,0,.63A.32.32,0,0,0,219.72,108.49Z" fill="#b25636"></path><path d="M225.92,111.15a.32.32,0,0,0,0,.63A.32.32,0,0,0,225.92,111.15Z" fill="#b25636"></path><path d="M227.14,115.26a.32.32,0,0,0,0,.63A.32.32,0,0,0,227.14,115.26Z" fill="#b25636"></path><path d="M203.11,118.45a.26.26,0,0,0,0,.52A.26.26,0,0,0,203.11,118.45Z" fill="#b25636"></path><path d="M209.33,108.34a.32.32,0,0,0,0,.63A.32.32,0,0,0,209.33,108.34Z" fill="#b25636"></path><path d="M262.68,115.87l-1.83,11s-3.68,3.14-3,3.86,2.1-.76,2.1-.76-2.34,2.11-1.13,4.1,3.18,1.9,3.68,1.09,1.3-7.14,1.3-7.14l4.33-10.85" fill="#ffc6b2"></path><path d="M275.58,123.2l-8.43,5s-2.1,4.73-3.5,4.73-3-1.34-3.6-2.06.8-3.93.8-3.93-1.61.09-2.06-.84,4.86-1.24,4.86-1.24l6.94-5" fill="#ffc6b2"></path><path d="M141.75,102.54s-9.63-9.23-11.5-16.64l-2.56-8.69s6.51,12.3,9,15.83,7.4,11.43,7.4,11.43Z" fill="#3c6071" opacity="0.58"></path></g></g></svg>